<svg id="Layer_1" data-name="Layer 1" xmlns="http://www.w3.org/2000/svg" viewBox="0 0 2000 2000"><defs><style>.cls-1{fill:#e9bf5e;}.cls-2{fill:#9b2d21;}</style></defs><title>Untitled-1 [Recovered]</title><path class="cls-1" d="M1688.4,1296.74A691.25,691.25,0,0,1,1675.51,1430H324.5a690.46,690.46,0,0,1-12.9-133.24c0-380.19,308.21-688.41,688.41-688.41S1688.4,916.55,1688.4,1296.74Z"/><polygon class="cls-2" points="76.92 1578.73 776.55 879.11 1120.41 1222.96 1346.12 997.26 1923.08 1574.21 76.92 1578.73"/><polygon class="cls-1" points="1000 311.11 928.72 564.33 1071.28 564.33 1000 311.11"/><polygon class="cls-1" points="0 1311.11 253.21 1382.39 253.21 1239.83 0 1311.11"/><polygon class="cls-1" points="2000 1311.11 1746.79 1239.83 1746.79 1382.39 2000 1311.11"/><polygon class="cls-1" points="292.89 604 421.54 833.46 522.35 732.65 292.89 604"/><polygon class="cls-1" points="1707.11 604 1477.65 732.65 1578.46 833.46 1707.11 604"/><polygon class="cls-1" points="292.89 604 421.54 833.46 522.35 732.65 292.89 604"/><polygon class="cls-1" points="1707.11 604 1477.65 732.65 1578.46 833.46 1707.11 604"/><polygon class="cls-1" points="757.6 340.93 749.83 603.88 888.13 569.32 757.6 340.93"/><polygon class="cls-1" points="1970.18 1068.71 1707.24 1060.94 1741.79 1199.25 1970.18 1068.71"/><polygon class="cls-1" points="142.58 796.49 323.01 987.92 396.37 865.68 142.58 796.49"/><polygon class="cls-1" points="1514.62 453.69 1323.19 634.12 1445.43 707.48 1514.62 453.69"/><polygon class="cls-1" points="521.19 433.19 579.85 689.62 705.01 621.36 521.19 433.19"/><polygon class="cls-1" points="1877.92 832.3 1621.49 890.96 1689.75 1016.12 1877.92 832.3"/><polygon class="cls-1" points="40.65 1028.9 263.45 1168.74 303.69 1031.98 40.65 1028.9"/><polygon class="cls-1" points="1282.21 351.76 1142.37 574.56 1279.13 614.8 1282.21 351.76"/></svg>